<?xml version="1.0" encoding="UTF-8" standalone="no"?>
<svg
   xmlns:dc="http://purl.org/dc/elements/1.1/"
   xmlns:cc="http://creativecommons.org/ns#"
   xmlns:rdf="http://www.w3.org/1999/02/22-rdf-syntax-ns#"
   xmlns:svg="http://www.w3.org/2000/svg"
   xmlns="http://www.w3.org/2000/svg"
   id="svg3777"
   version="1.1"
   height="179.888"
   width="163.632"
   viewBox="0 0 163.632 179.888">
  <metadata
     id="metadata3783">
    <rdf:RDF>
      <cc:Work
         rdf:about="">
        <dc:format>image/svg+xml</dc:format>
        <dc:type
           rdf:resource="http://purl.org/dc/dcmitype/StillImage" />
        <dc:title></dc:title>
      </cc:Work>
    </rdf:RDF>
  </metadata>
  <defs
     id="defs3781" />
  <text
     id="text4658"
     y="69.239067"
     x="-94.619308"
     style="font-style:normal;font-variant:normal;font-weight:bold;font-stretch:normal;font-size:40px;line-height:1.25;font-family:'Segoe UI';-inkscape-font-specification:'Segoe UI Bold';letter-spacing:0px;word-spacing:0px;fill:#000000;fill-opacity:1;stroke:none"
     xml:space="preserve"><tspan
       y="105.26924"
       x="-94.619308"
       id="tspan4656" /></text>
  <g
     id="layer5">
    <path
       id="path5636-5"
       d="M 95.756389,12.976926 A 27.854409,26.396063 0 0 0 70.800792,27.723069 19.104331,19.104331 0 0 0 61.92445,25.519976 19.104331,19.104331 0 0 0 43.984975,38.119306 19.104331,19.104331 0 0 0 39.171946,37.477063 19.104331,19.104331 0 0 0 20.068234,56.580772 19.104331,19.104331 0 0 0 20.170585,58.369353 19.104331,19.104331 0 0 0 5.1941562,76.999689 19.104331,19.104331 0 0 0 24.297866,96.103396 a 19.104331,19.104331 0 0 0 13.684256,-5.8007 19.104331,19.104331 0 0 0 10.524184,3.17541 19.104331,19.104331 0 0 0 10.710974,-3.30848 22.60436,22.60436 0 0 0 15.539356,6.22548 22.60436,22.60436 0 0 0 13.244148,-4.32175 20.708513,20.708513 0 0 0 14.318826,5.78024 20.708513,20.708513 0 0 0 15.94108,-7.50485 23.333536,23.333536 0 0 0 5.93377,0.79577 23.333536,23.333536 0 0 0 23.33334,-23.333336 23.333536,23.333536 0 0 0 -8.65117,-18.113467 12.979278,12.979278 0 0 0 0.33775,-2.88629 12.979278,12.979278 0 0 0 -12.97803,-12.980591 12.979278,12.979278 0 0 0 -3.1831,0.409402 27.854409,26.396063 0 0 0 -27.296861,-21.263308 z"
       style="opacity:1;vector-effect:none;fill:#cccccc;fill-opacity:1;fill-rule:evenodd;stroke:#000000;stroke-width:1.60262442;stroke-linecap:butt;stroke-linejoin:miter;stroke-miterlimit:4;stroke-dasharray:none;stroke-dashoffset:0;stroke-opacity:1" />
  </g>
  <g
     style="display:inline"
     id="layer4">
    <path
       id="path6355"
       d="m 46.941055,81.137758 -1.80469,6.814454 -5.60742,21.167968 0.21679,-0.0937 -1.08984,3.04687 11.10352,-3.40625 -14.85742,31.88086 8.23828,-7.94141 -0.05664,0.19922 9.18945,-9.0039 12.55078,-12.09766 -0.15234,-0.0449 13.56836,-13.289056 -15.29493,0.99609 5.97657,-11.414062 3.33007,-6.361329 z"
       style="opacity:1;fill:#f2cd00;fill-opacity:1;stroke:none;stroke-width:5.65289545;stroke-linecap:round;stroke-linejoin:round;stroke-miterlimit:4;stroke-dasharray:none;stroke-opacity:1;paint-order:markers fill stroke" />
    <g
       id="text4662"
       style="font-style:normal;font-variant:normal;font-weight:bold;font-stretch:normal;font-size:74.7100296px;line-height:1.25;font-family:Arial;-inkscape-font-specification:'Arial Bold';letter-spacing:0px;word-spacing:0px;fill:#0065b2;fill-opacity:1;stroke:#000000;stroke-width:0.70040655;stroke-opacity:1"
       transform="scale(1.031797,0.9691829)"
       aria-label="SW">
      <path
         id="path6487"
         style="fill:#0065b2;fill-opacity:1;stroke:#000000;stroke-width:0.70040655;stroke-opacity:1"
         d="M 7.2099176,152.62802 17.716016,151.6066 q 0.948467,5.28953 3.830348,7.77013 2.91836,2.48061 7.843094,2.48061 5.216569,0 7.843094,-2.18877 2.663004,-2.22525 2.663004,-5.18009 0,-1.89694 -1.130865,-3.2102 -1.094385,-1.34974 -3.866828,-2.33469 -1.896934,-0.65663 -8.645643,-2.33469 -8.682122,-2.15229 -12.184155,-5.28952 -4.9247335,-4.41402 -4.9247335,-10.76146 0,-4.0857 2.2982085,-7.62422 2.334689,-3.57499 6.67575,-5.43544 4.377541,-1.86046 10.542578,-1.86046 10.068343,0 15.138995,4.41402 5.107131,4.41402 5.362487,11.78288 l -10.797934,0.47424 q -0.69311,-4.12219 -2.991319,-5.90968 -2.26173,-1.82398 -6.821668,-1.82398 -4.705856,0 -7.36886,1.93342 -1.714537,1.2403 -1.714537,3.31963 0,1.89694 1.605098,3.24668 2.042853,1.71453 9.922426,3.57499 7.879573,1.86045 11.636963,3.86683 3.793868,1.96989 5.90968,5.43544 2.152291,3.42908 2.152291,8.49973 0,4.59642 -2.553566,8.60916 -2.553565,4.01275 -7.222942,5.98264 -4.669377,1.93341 -11.636963,1.93341 -10.141303,0 -15.576749,-4.66937 -5.4354467,-4.70586 -6.4933524,-13.67982 z" />
      <path
         id="path6489"
         style="fill:#0065b2;fill-opacity:1;stroke:#000000;stroke-width:0.70040655;stroke-opacity:1"
         d="M 67.437583,170.02875 54.669756,116.54979 h 11.05329 l 8.061971,36.73486 9.776508,-36.73486 h 12.840786 l 9.375229,37.35502 8.20789,-37.35502 h 10.8709 l -12.98671,53.47896 H 100.41506 L 89.763041,130.04721 79.147505,170.02875 Z" />
    </g>
    <g
       transform="translate(207.04931)"
       id="g6475">
      <path
         id="path6360"
         d="m -55.101835,58.775288 a 9.1558094,9.4062719 0 0 1 -9.15581,9.406272 9.1558094,9.4062719 0 0 1 -9.155809,-9.406272 9.1558094,9.4062719 0 0 1 9.155809,-9.406272 9.1558094,9.4062719 0 0 1 9.15581,9.406272 z"
         style="opacity:1;vector-effect:none;fill:#ffffff;fill-opacity:1;fill-rule:evenodd;stroke:none;stroke-width:1.23028553;stroke-linecap:butt;stroke-linejoin:miter;stroke-miterlimit:4;stroke-dasharray:none;stroke-dashoffset:0;stroke-opacity:1" />
      <path
         id="rect6358"
         d="m -73.390305,59.748005 h 18.96192 v 76.213175 h -18.96192 z"
         style="opacity:1;fill:#ffffff;fill-opacity:1;stroke:none;stroke-width:3.79200006;stroke-linecap:round;stroke-linejoin:round;stroke-miterlimit:4;stroke-dasharray:none;stroke-opacity:1;paint-order:markers fill stroke" />
      <g
         transform="matrix(0.61218243,0,0,0.61218243,-125.95907,35.221768)"
         style="display:inline"
         id="g5300">
        <path
           id="rect4993-5"
           d="M 93.191757,38.95013 H 109.19176 V 98.037296 H 93.191757 Z"
           style="display:inline;opacity:1;fill:#4a4d57;fill-opacity:1;stroke:none;stroke-width:0.44579321;stroke-linecap:round;stroke-linejoin:round;stroke-miterlimit:4;stroke-dasharray:none;stroke-opacity:0" />
        <g
           transform="translate(58.264757,-2.6726953)"
           id="g5076">
          <path
             id="rect4993"
             d="m 34.927147,99.893631 h 16 v 74.808849 h -16 z"
             style="opacity:1;fill:#ee241f;fill-opacity:1;stroke:none;stroke-width:0.5016067;stroke-linecap:round;stroke-linejoin:round;stroke-miterlimit:4;stroke-dasharray:none;stroke-opacity:0" />
          <path
             id="path5051"
             d="m 50.945492,100.36182 a 8,3.1404169 0 0 1 -8,3.14041 8,3.1404169 0 0 1 -8,-3.14041 8,3.1404169 0 0 1 8,-3.14042 8,3.1404169 0 0 1 8,3.14042 z"
             style="opacity:1;vector-effect:none;fill:#ee241f;fill-opacity:1;fill-rule:evenodd;stroke:none;stroke-width:0.25049192;stroke-linecap:butt;stroke-linejoin:miter;stroke-miterlimit:4;stroke-dasharray:none;stroke-dashoffset:0;stroke-opacity:1" />
        </g>
        <g
           transform="translate(58.264757,-2.6726953)"
           id="g4964">
          <path
             id="path4834"
             d="M 59.244653,171.37778 A 26.458334,26.458334 0 0 1 67.778256,201.38491 26.458334,26.458334 0 0 1 41.80118,218.66039 26.458334,26.458334 0 0 1 17.428611,199.1866 26.458334,26.458334 0 0 1 28.545034,170.03741"
             style="display:inline;opacity:1;vector-effect:none;fill:none;fill-opacity:1;fill-rule:evenodd;stroke:#4a5055;stroke-width:3.12309122;stroke-linecap:butt;stroke-linejoin:miter;stroke-miterlimit:4;stroke-dasharray:none;stroke-dashoffset:0;stroke-opacity:1"
             transform="matrix(0.9993547,-0.03591926,0,1,0,0)" />
          <path
             style="display:inline;fill:none;stroke:#4a5055;stroke-width:3.12208343;stroke-linecap:butt;stroke-linejoin:miter;stroke-miterlimit:4;stroke-dasharray:none;stroke-opacity:1"
             d="M 58.4825,41.303518 59.65453,170.22058"
             id="path4851-1" />
          <path
             style="display:inline;fill:none;stroke:#4a5055;stroke-width:3.12208343;stroke-linecap:butt;stroke-linejoin:miter;stroke-miterlimit:4;stroke-dasharray:none;stroke-opacity:1"
             d="m 26.754645,41.303355 1.17203,128.917065"
             id="path4851" />
          <path
             id="path4950"
             d="m 26.744133,41.449775 a 15.875,15.875 0 0 1 15.875,-15.874999 15.875,15.875 0 0 1 15.875,15.875"
             style="opacity:1;vector-effect:none;fill:none;fill-opacity:1;fill-rule:evenodd;stroke:#4a5055;stroke-width:3.12208343;stroke-linecap:butt;stroke-linejoin:miter;stroke-miterlimit:4;stroke-dasharray:none;stroke-dashoffset:0;stroke-opacity:1" />
        </g>
        <path
           id="path4834-0"
           d="m 109.11444,174.13646 a 20,20 0 0 1 11.78387,22.39745 20,20 0 0 1 -19.59849,16.01264 20,20 0 0 1 -19.598494,-16.01264 20,20 0 0 1 11.783872,-22.39745"
           style="display:inline;opacity:1;vector-effect:none;fill:#ee241f;fill-opacity:1;fill-rule:evenodd;stroke:none;stroke-width:0.21898112;stroke-linecap:butt;stroke-linejoin:miter;stroke-miterlimit:4;stroke-dasharray:none;stroke-dashoffset:0;stroke-opacity:1"
           transform="matrix(0.99893451,-0.04615033,0,1,0,0)" />
        <path
           id="path4851-1-7"
           d="m 109.57177,50.214771 0.60119,85.000139"
           style="display:inline;fill:#ee241f;fill-opacity:1;stroke:none;stroke-width:0.21886443;stroke-linecap:butt;stroke-linejoin:miter;stroke-miterlimit:4;stroke-dasharray:none;stroke-opacity:1" />
        <path
           id="path4851-7"
           d="M 93.296864,50.214664 93.898062,135.2148"
           style="display:inline;fill:#ee241f;fill-opacity:1;stroke:none;stroke-width:0.21886443;stroke-linecap:butt;stroke-linejoin:miter;stroke-miterlimit:4;stroke-dasharray:none;stroke-opacity:1" />
        <path
           id="path4950-9"
           d="m 93.191902,39.156627 a 8,8 0 0 1 7.999998,-7.999999 8,8 0 0 1 8,8"
           style="opacity:1;vector-effect:none;fill:#4a4d57;fill-opacity:1;fill-rule:evenodd;stroke:none;stroke-width:0.21886443;stroke-linecap:butt;stroke-linejoin:miter;stroke-miterlimit:4;stroke-dasharray:none;stroke-dashoffset:0;stroke-opacity:1" />
        <path
           id="path5018"
           d="M 98.615781,36.988965 A 1.2483403,1.3419857 87.323485 0 0 97.297,38.266923 l 0.314708,135.041367 c -3.513232,0.41907 -6.642269,2.4229 -8.926586,5.35988 -2.577801,3.3143 -4.134115,7.82615 -4.134115,12.78733 a 1.0850436,1.0711978 0 1 0 2.169377,0 c 0,-4.51671 1.431944,-8.58515 3.685046,-11.48198 2.214943,-2.84779 5.172342,-4.54598 8.410855,-4.60283 a 1.2483403,1.3419857 87.323485 0 0 1.480535,-1.28364 L 99.980039,38.24522 a 1.2483403,1.3419857 87.323485 0 0 -1.364258,-1.256255 z"
           style="color:#000000;font-style:normal;font-variant:normal;font-weight:normal;font-stretch:normal;font-size:medium;line-height:normal;font-family:sans-serif;font-variant-ligatures:normal;font-variant-position:normal;font-variant-caps:normal;font-variant-numeric:normal;font-variant-alternates:normal;font-feature-settings:normal;text-indent:0;text-align:start;text-decoration:none;text-decoration-line:none;text-decoration-style:solid;text-decoration-color:#000000;letter-spacing:normal;word-spacing:normal;text-transform:none;writing-mode:lr-tb;direction:ltr;text-orientation:mixed;dominant-baseline:auto;baseline-shift:baseline;text-anchor:start;white-space:normal;shape-padding:0;clip-rule:nonzero;display:inline;overflow:visible;visibility:visible;opacity:1;isolation:auto;mix-blend-mode:normal;color-interpolation:sRGB;color-interpolation-filters:linearRGB;solid-color:#000000;solid-opacity:1;vector-effect:none;fill:#ffffff;fill-opacity:0.49246234;fill-rule:evenodd;stroke:none;stroke-width:2.15598154;stroke-linecap:round;stroke-linejoin:miter;stroke-miterlimit:4;stroke-dasharray:none;stroke-dashoffset:0;stroke-opacity:1;paint-order:markers fill stroke;color-rendering:auto;image-rendering:auto;shape-rendering:auto;text-rendering:auto;enable-background:accumulate" />
        <path
           id="path5051-0"
           d="m 108.5414,96.258324 a 7.6220236,1.8647472 0 0 1 -7.62203,1.864747 7.6220236,1.8647472 0 0 1 -7.622021,-1.864747 7.6220236,1.8647472 0 0 1 7.622021,-1.864747 7.6220236,1.8647472 0 0 1 7.62203,1.864747 z"
           style="display:inline;opacity:1;vector-effect:none;fill:#4a5055;fill-opacity:0.2964824;fill-rule:evenodd;stroke:none;stroke-width:0.18840839;stroke-linecap:butt;stroke-linejoin:miter;stroke-miterlimit:4;stroke-dasharray:none;stroke-dashoffset:0;stroke-opacity:1" />
        <path
           id="path5095"
           d="m 117.19768,35.476765 h 9.62171"
           style="fill:none;stroke:#4a5055;stroke-width:1.00329995;stroke-linecap:round;stroke-linejoin:miter;stroke-miterlimit:4;stroke-dasharray:none;stroke-opacity:1" />
        <path
           id="path5095-2"
           d="m 117.19768,49.36941 h 9.62172"
           style="display:inline;fill:none;stroke:#4a5055;stroke-width:1.00329995;stroke-linecap:round;stroke-linejoin:miter;stroke-miterlimit:4;stroke-dasharray:none;stroke-opacity:1" />
        <path
           id="path5095-4"
           d="m 117.19768,64.074605 h 9.62172"
           style="display:inline;fill:none;stroke:#4a5055;stroke-width:1.00329995;stroke-linecap:round;stroke-linejoin:miter;stroke-miterlimit:4;stroke-dasharray:none;stroke-opacity:1" />
        <path
           id="path5095-3"
           d="m 117.19769,77.571717 h 9.62171"
           style="display:inline;fill:none;stroke:#4a5055;stroke-width:1.00329995;stroke-linecap:round;stroke-linejoin:miter;stroke-miterlimit:4;stroke-dasharray:none;stroke-opacity:1" />
        <path
           id="path5095-5"
           d="m 117.19769,91.737002 h 9.62171"
           style="display:inline;fill:none;stroke:#4a5055;stroke-width:1.00329995;stroke-linecap:round;stroke-linejoin:miter;stroke-miterlimit:4;stroke-dasharray:none;stroke-opacity:1" />
        <path
           id="path5095-6"
           d="m 117.19768,134.36649 h 9.62171"
           style="display:inline;fill:none;stroke:#4a5055;stroke-width:1.00329995;stroke-linecap:round;stroke-linejoin:miter;stroke-miterlimit:4;stroke-dasharray:none;stroke-opacity:1" />
        <path
           id="path5095-9"
           d="m 117.19769,106.57046 h 9.62171"
           style="display:inline;fill:none;stroke:#4a5055;stroke-width:1.00329995;stroke-linecap:round;stroke-linejoin:miter;stroke-miterlimit:4;stroke-dasharray:none;stroke-opacity:1" />
        <path
           id="path5095-1"
           d="m 117.19768,162.69706 h 9.62172"
           style="display:inline;fill:none;stroke:#4a5055;stroke-width:1.00329995;stroke-linecap:round;stroke-linejoin:miter;stroke-miterlimit:4;stroke-dasharray:none;stroke-opacity:1" />
        <path
           id="path5095-91"
           d="m 117.19769,148.53178 h 9.62171"
           style="display:inline;fill:none;stroke:#4a5055;stroke-width:1.00329995;stroke-linecap:round;stroke-linejoin:miter;stroke-miterlimit:4;stroke-dasharray:none;stroke-opacity:1" />
        <path
           id="path5095-47"
           d="m 117.19769,120.60211 h 9.62171"
           style="display:inline;fill:none;stroke:#4a5055;stroke-width:1.00329995;stroke-linecap:round;stroke-linejoin:miter;stroke-miterlimit:4;stroke-dasharray:none;stroke-opacity:1" />
        <path
           id="path5095-2-1"
           d="m 118.80978,42.354384 h 2.85393"
           style="display:inline;fill:none;stroke:#4a5055;stroke-width:0.54641956;stroke-linecap:round;stroke-linejoin:miter;stroke-miterlimit:4;stroke-dasharray:none;stroke-opacity:1" />
        <path
           id="path5095-2-1-8"
           d="m 118.80978,56.323789 h 2.85393"
           style="display:inline;fill:none;stroke:#4a5055;stroke-width:0.54641956;stroke-linecap:round;stroke-linejoin:miter;stroke-miterlimit:4;stroke-dasharray:none;stroke-opacity:1" />
        <path
           id="path5095-2-1-6"
           d="m 118.80978,70.489075 h 2.85393"
           style="display:inline;fill:none;stroke:#4a5055;stroke-width:0.54641956;stroke-linecap:round;stroke-linejoin:miter;stroke-miterlimit:4;stroke-dasharray:none;stroke-opacity:1" />
        <path
           id="path5095-2-1-85"
           d="m 118.80978,84.787994 h 2.85393"
           style="display:inline;fill:none;stroke:#4a5055;stroke-width:0.54641956;stroke-linecap:round;stroke-linejoin:miter;stroke-miterlimit:4;stroke-dasharray:none;stroke-opacity:1" />
        <path
           id="path5095-2-1-2"
           d="m 118.80978,98.68601 h 2.85393"
           style="display:inline;fill:none;stroke:#4a5055;stroke-width:0.54641956;stroke-linecap:round;stroke-linejoin:miter;stroke-miterlimit:4;stroke-dasharray:none;stroke-opacity:1" />
        <path
           id="path5095-2-1-5"
           d="m 118.80978,113.11856 h 2.85393"
           style="display:inline;fill:none;stroke:#4a5055;stroke-width:0.54641956;stroke-linecap:round;stroke-linejoin:miter;stroke-miterlimit:4;stroke-dasharray:none;stroke-opacity:1" />
        <path
           id="path5095-2-1-83"
           d="m 118.80978,127.28385 h 2.85393"
           style="display:inline;fill:none;stroke:#4a5055;stroke-width:0.54641956;stroke-linecap:round;stroke-linejoin:miter;stroke-miterlimit:4;stroke-dasharray:none;stroke-opacity:1" />
        <path
           id="path5095-2-1-4"
           d="m 118.80978,141.3155 h 2.85393"
           style="display:inline;fill:none;stroke:#4a5055;stroke-width:0.54641956;stroke-linecap:round;stroke-linejoin:miter;stroke-miterlimit:4;stroke-dasharray:none;stroke-opacity:1" />
        <path
           id="path5095-2-1-7"
           d="m 118.80978,155.61442 h 2.85393"
           style="display:inline;fill:none;stroke:#4a5055;stroke-width:0.54641956;stroke-linecap:round;stroke-linejoin:miter;stroke-miterlimit:4;stroke-dasharray:none;stroke-opacity:1" />
      </g>
    </g>
  </g>
</svg>
